<mxfile host="app.diagrams.net" agent="Mozilla/5.0 (Windows NT 10.0; Win64; x64) AppleWebKit/537.36 (KHTML, like Gecko) Chrome/128.0.0.0 Safari/537.36" version="27.1.4">
  <diagram name="Página-1" id="5fx5dPSRYgFPklVisdGd">
    <mxGraphModel grid="1" page="1" gridSize="10" guides="1" tooltips="1" connect="1" arrows="1" fold="1" pageScale="1" pageWidth="2000" pageHeight="2000" math="0" shadow="0">
      <root>
        <mxCell id="0" />
        <mxCell id="1" parent="0" />
        <mxCell id="1xnr9raN_xx7woU1nJbw-65" value="1. acessarTelaEnvio()" style="verticalAlign=bottom;edgeStyle=elbowEdgeStyle;elbow=vertical;curved=0;rounded=0;endArrow=block;" edge="1" parent="1">
          <mxGeometry relative="1" as="geometry">
            <Array as="points">
              <mxPoint x="301" y="127" />
            </Array>
            <mxPoint x="36.888888888888914" y="127" as="sourcePoint" />
            <mxPoint x="488.5" y="127" as="targetPoint" />
          </mxGeometry>
        </mxCell>
        <mxCell id="1xnr9raN_xx7woU1nJbw-67" value="2. exibeFormulario()" style="verticalAlign=bottom;edgeStyle=elbowEdgeStyle;elbow=vertical;curved=0;rounded=0;dashed=1;dashPattern=2 3;endArrow=block;" edge="1" parent="1">
          <mxGeometry relative="1" as="geometry">
            <Array as="points">
              <mxPoint x="304" y="179" />
            </Array>
            <mxPoint x="488.5" y="179" as="sourcePoint" />
            <mxPoint x="36.888888888888914" y="179" as="targetPoint" />
          </mxGeometry>
        </mxCell>
        <mxCell id="1xnr9raN_xx7woU1nJbw-69" value="3. confirmarTransferencia(alunoId, quantidade, mensagem)" style="verticalAlign=bottom;edgeStyle=elbowEdgeStyle;elbow=vertical;curved=0;rounded=0;endArrow=block;" edge="1" parent="1">
          <mxGeometry relative="1" as="geometry">
            <Array as="points">
              <mxPoint x="301" y="231" />
            </Array>
            <mxPoint x="36.888888888888914" y="231" as="sourcePoint" />
            <mxPoint x="488.5" y="231" as="targetPoint" />
          </mxGeometry>
        </mxCell>
        <mxCell id="1xnr9raN_xx7woU1nJbw-71" value="4. POST api/transacoes(remetenteId, destinatarioId, instituicaoId, valor, mensagem)" style="verticalAlign=bottom;edgeStyle=elbowEdgeStyle;elbow=vertical;curved=0;rounded=0;endArrow=block;entryX=0.046;entryY=0.032;entryDx=0;entryDy=0;entryPerimeter=0;" edge="1" parent="1" target="1xnr9raN_xx7woU1nJbw-105">
          <mxGeometry relative="1" as="geometry">
            <Array as="points">
              <mxPoint x="722" y="283" />
            </Array>
            <mxPoint x="488.5" y="283" as="sourcePoint" />
            <mxPoint x="900" y="290" as="targetPoint" />
          </mxGeometry>
        </mxCell>
        <mxCell id="1xnr9raN_xx7woU1nJbw-77" value="5. criarTransacao(transacaoDTO)" style="verticalAlign=bottom;edgeStyle=elbowEdgeStyle;elbow=horizontal;curved=0;rounded=0;endArrow=block;" edge="1" parent="1">
          <mxGeometry relative="1" as="geometry">
            <Array as="points">
              <mxPoint x="1189" y="485" />
            </Array>
            <mxPoint x="937.75" y="485" as="sourcePoint" />
            <mxPoint x="1423.5" y="485" as="targetPoint" />
          </mxGeometry>
        </mxCell>
        <mxCell id="1xnr9raN_xx7woU1nJbw-79" value="6. resposta(transacaoRepository.save)" style="verticalAlign=bottom;edgeStyle=elbowEdgeStyle;elbow=horizontal;curved=0;rounded=0;dashed=1;dashPattern=2 3;endArrow=block;" edge="1" parent="1">
          <mxGeometry relative="1" as="geometry">
            <Array as="points">
              <mxPoint x="1192" y="537" />
            </Array>
            <mxPoint x="1423.5" y="537" as="sourcePoint" />
            <mxPoint x="937.75" y="537" as="targetPoint" />
          </mxGeometry>
        </mxCell>
        <mxCell id="1xnr9raN_xx7woU1nJbw-85" value="7. notificarAluno(aluno.email, motivo, quantidade)" style="verticalAlign=bottom;edgeStyle=elbowEdgeStyle;elbow=vertical;curved=0;rounded=0;endArrow=block;" edge="1" parent="1">
          <mxGeometry relative="1" as="geometry">
            <Array as="points">
              <mxPoint x="1389" y="693" />
            </Array>
            <mxPoint x="937.75" y="693" as="sourcePoint" />
            <mxPoint x="1823.5" y="693" as="targetPoint" />
          </mxGeometry>
        </mxCell>
        <mxCell id="1xnr9raN_xx7woU1nJbw-87" value="8. emailEnviado" style="verticalAlign=bottom;edgeStyle=elbowEdgeStyle;elbow=vertical;curved=0;rounded=0;dashed=1;dashPattern=2 3;endArrow=block;" edge="1" parent="1">
          <mxGeometry relative="1" as="geometry">
            <Array as="points">
              <mxPoint x="1392" y="745" />
            </Array>
            <mxPoint x="1823.5" y="744.9999999999998" as="sourcePoint" />
            <mxPoint x="937.75" y="744.9999999999998" as="targetPoint" />
          </mxGeometry>
        </mxCell>
        <mxCell id="1xnr9raN_xx7woU1nJbw-89" value="9. resposta(transacaoRepository.save)" style="verticalAlign=bottom;edgeStyle=elbowEdgeStyle;elbow=vertical;curved=0;rounded=0;dashed=1;dashPattern=2 3;endArrow=block;" edge="1" parent="1">
          <mxGeometry relative="1" as="geometry">
            <Array as="points">
              <mxPoint x="685" y="797" />
            </Array>
            <mxPoint x="937.9999999999998" y="797" as="sourcePoint" />
            <mxPoint x="500" y="797" as="targetPoint" />
          </mxGeometry>
        </mxCell>
        <mxCell id="1xnr9raN_xx7woU1nJbw-91" value="10. mostrarMensagem(&quot;Transferência realizada com sucesso!&quot;)" style="verticalAlign=bottom;edgeStyle=elbowEdgeStyle;elbow=vertical;curved=0;rounded=0;dashed=1;dashPattern=2 3;endArrow=block;" edge="1" parent="1">
          <mxGeometry relative="1" as="geometry">
            <Array as="points">
              <mxPoint x="304" y="849" />
            </Array>
            <mxPoint x="488.5" y="849" as="sourcePoint" />
            <mxPoint x="36.888888888888914" y="849" as="targetPoint" />
          </mxGeometry>
        </mxCell>
        <mxCell id="1xnr9raN_xx7woU1nJbw-93" value="5. resposta(transacaoRepository.save)" style="verticalAlign=bottom;edgeStyle=elbowEdgeStyle;elbow=vertical;curved=0;rounded=0;dashed=1;dashPattern=2 3;endArrow=block;entryX=1.075;entryY=0.91;entryDx=0;entryDy=0;entryPerimeter=0;" edge="1" parent="1" target="1xnr9raN_xx7woU1nJbw-100">
          <mxGeometry relative="1" as="geometry">
            <Array as="points">
              <mxPoint x="725" y="947" />
            </Array>
            <mxPoint x="937.9999999999998" y="947" as="sourcePoint" />
            <mxPoint x="520" y="950" as="targetPoint" />
          </mxGeometry>
        </mxCell>
        <mxCell id="1xnr9raN_xx7woU1nJbw-95" value="6. mostrarMensagem(&quot;Saldo insuficiente&quot;)" style="verticalAlign=bottom;edgeStyle=elbowEdgeStyle;elbow=vertical;curved=0;rounded=0;dashed=1;dashPattern=2 3;endArrow=block;" edge="1" parent="1">
          <mxGeometry x="0.0009" relative="1" as="geometry">
            <Array as="points">
              <mxPoint x="304" y="999" />
            </Array>
            <mxPoint x="488.5" y="999" as="sourcePoint" />
            <mxPoint x="36.888888888888914" y="999" as="targetPoint" />
            <mxPoint as="offset" />
          </mxGeometry>
        </mxCell>
        <mxCell id="1xnr9raN_xx7woU1nJbw-97" value="Professor" style="shape=umlActor;verticalLabelPosition=bottom;verticalAlign=top;html=1;outlineConnect=0;" vertex="1" parent="1">
          <mxGeometry x="16" width="30" height="60" as="geometry" />
        </mxCell>
        <mxCell id="1xnr9raN_xx7woU1nJbw-98" value="" style="rounded=0;whiteSpace=wrap;html=1;" vertex="1" parent="1">
          <mxGeometry x="26" y="100" width="10" height="920" as="geometry" />
        </mxCell>
        <mxCell id="1xnr9raN_xx7woU1nJbw-102" style="edgeStyle=orthogonalEdgeStyle;rounded=0;orthogonalLoop=1;jettySize=auto;html=1;endArrow=none;startFill=0;dashed=1;dashPattern=8 8;" edge="1" parent="1" source="1xnr9raN_xx7woU1nJbw-99" target="1xnr9raN_xx7woU1nJbw-100">
          <mxGeometry relative="1" as="geometry" />
        </mxCell>
        <mxCell id="1xnr9raN_xx7woU1nJbw-99" value=":TransacaoView" style="rounded=0;whiteSpace=wrap;html=1;" vertex="1" parent="1">
          <mxGeometry x="435" y="20" width="120" height="60" as="geometry" />
        </mxCell>
        <mxCell id="1xnr9raN_xx7woU1nJbw-100" value="" style="rounded=0;whiteSpace=wrap;html=1;" vertex="1" parent="1">
          <mxGeometry x="490" y="110" width="10" height="920" as="geometry" />
        </mxCell>
        <mxCell id="1xnr9raN_xx7woU1nJbw-103" value="" style="endArrow=none;html=1;rounded=0;entryX=0.5;entryY=1;entryDx=0;entryDy=0;dashed=1;dashPattern=8 8;" edge="1" parent="1" target="1xnr9raN_xx7woU1nJbw-100">
          <mxGeometry width="50" height="50" relative="1" as="geometry">
            <mxPoint x="495" y="1110" as="sourcePoint" />
            <mxPoint x="190" y="970" as="targetPoint" />
          </mxGeometry>
        </mxCell>
        <mxCell id="1xnr9raN_xx7woU1nJbw-107" style="edgeStyle=orthogonalEdgeStyle;rounded=0;orthogonalLoop=1;jettySize=auto;html=1;entryX=0.5;entryY=0;entryDx=0;entryDy=0;endArrow=none;startFill=0;dashed=1;dashPattern=8 8;" edge="1" parent="1" source="1xnr9raN_xx7woU1nJbw-104" target="1xnr9raN_xx7woU1nJbw-105">
          <mxGeometry relative="1" as="geometry" />
        </mxCell>
        <mxCell id="1xnr9raN_xx7woU1nJbw-104" value=":TransacaoController" style="rounded=0;whiteSpace=wrap;html=1;" vertex="1" parent="1">
          <mxGeometry x="873" y="20" width="120" height="60" as="geometry" />
        </mxCell>
        <mxCell id="1xnr9raN_xx7woU1nJbw-105" value="" style="rounded=0;whiteSpace=wrap;html=1;" vertex="1" parent="1">
          <mxGeometry x="928" y="260" width="10" height="710" as="geometry" />
        </mxCell>
        <mxCell id="1xnr9raN_xx7woU1nJbw-108" value="" style="endArrow=none;html=1;rounded=0;entryX=0.5;entryY=1;entryDx=0;entryDy=0;dashed=1;dashPattern=8 8;" edge="1" parent="1" target="1xnr9raN_xx7woU1nJbw-105">
          <mxGeometry width="50" height="50" relative="1" as="geometry">
            <mxPoint x="933" y="1110" as="sourcePoint" />
            <mxPoint x="1040" y="940" as="targetPoint" />
          </mxGeometry>
        </mxCell>
        <mxCell id="1xnr9raN_xx7woU1nJbw-62" value="alt" style="shape=umlFrame;pointerEvents=0;dropTarget=0;strokeColor=#676767;height=20;width=30" vertex="1" parent="1">
          <mxGeometry x="60" y="407" width="1810" height="612" as="geometry" />
        </mxCell>
        <mxCell id="1xnr9raN_xx7woU1nJbw-63" value="[saldo suficiente]" style="text;strokeColor=none;fillColor=none;align=center;verticalAlign=middle;whiteSpace=wrap;fontSize=15;" vertex="1" parent="1xnr9raN_xx7woU1nJbw-62">
          <mxGeometry x="51.00085094231868" width="1778.9891490576815" height="20" as="geometry" />
        </mxCell>
        <mxCell id="1xnr9raN_xx7woU1nJbw-64" value="                    [saldo insuficiente]" style="shape=line;dashed=1;whiteSpace=wrap;verticalAlign=top;labelPosition=center;verticalLabelPosition=middle;align=center;strokeColor=#676767;fontSize=15;" vertex="1" parent="1xnr9raN_xx7woU1nJbw-62">
          <mxGeometry y="467" width="1810" height="3" as="geometry" />
        </mxCell>
        <mxCell id="1xnr9raN_xx7woU1nJbw-119" style="edgeStyle=orthogonalEdgeStyle;rounded=0;orthogonalLoop=1;jettySize=auto;html=1;endArrow=none;startFill=0;dashed=1;dashPattern=8 8;" edge="1" parent="1" source="1xnr9raN_xx7woU1nJbw-116" target="1xnr9raN_xx7woU1nJbw-117">
          <mxGeometry relative="1" as="geometry" />
        </mxCell>
        <mxCell id="1xnr9raN_xx7woU1nJbw-116" value=":TransacaoRepository" style="rounded=0;whiteSpace=wrap;html=1;" vertex="1" parent="1">
          <mxGeometry x="1370" y="20" width="120" height="60" as="geometry" />
        </mxCell>
        <mxCell id="1xnr9raN_xx7woU1nJbw-117" value="" style="rounded=0;whiteSpace=wrap;html=1;" vertex="1" parent="1">
          <mxGeometry x="1425" y="450" width="10" height="110" as="geometry" />
        </mxCell>
        <mxCell id="1xnr9raN_xx7woU1nJbw-120" value="" style="endArrow=none;html=1;rounded=0;entryX=0.5;entryY=1;entryDx=0;entryDy=0;dashed=1;dashPattern=8 8;" edge="1" parent="1" target="1xnr9raN_xx7woU1nJbw-117">
          <mxGeometry width="50" height="50" relative="1" as="geometry">
            <mxPoint x="1430" y="1112" as="sourcePoint" />
            <mxPoint x="1340" y="750" as="targetPoint" />
          </mxGeometry>
        </mxCell>
        <mxCell id="1xnr9raN_xx7woU1nJbw-130" style="edgeStyle=orthogonalEdgeStyle;rounded=0;orthogonalLoop=1;jettySize=auto;html=1;entryX=0.5;entryY=0;entryDx=0;entryDy=0;endArrow=none;startFill=0;dashed=1;dashPattern=8 8;" edge="1" parent="1" source="9VuRrmX6LEQKQ4bahnSK-1" target="1xnr9raN_xx7woU1nJbw-128">
          <mxGeometry relative="1" as="geometry">
            <mxPoint x="1830" y="80.00000000000011" as="sourcePoint" />
          </mxGeometry>
        </mxCell>
        <mxCell id="1xnr9raN_xx7woU1nJbw-128" value="" style="rounded=0;whiteSpace=wrap;html=1;" vertex="1" parent="1">
          <mxGeometry x="1825" y="670" width="10" height="100" as="geometry" />
        </mxCell>
        <mxCell id="1xnr9raN_xx7woU1nJbw-131" value="" style="endArrow=none;html=1;rounded=0;entryX=0.5;entryY=1;entryDx=0;entryDy=0;dashed=1;dashPattern=8 8;" edge="1" parent="1" target="1xnr9raN_xx7woU1nJbw-128">
          <mxGeometry width="50" height="50" relative="1" as="geometry">
            <mxPoint x="1830" y="1112.6666666666667" as="sourcePoint" />
            <mxPoint x="1880" y="860" as="targetPoint" />
          </mxGeometry>
        </mxCell>
        <mxCell id="mLHn8rPhlw_DNMw9R-SD-1" value="" style="endArrow=none;html=1;rounded=0;exitX=0.5;exitY=0;exitDx=0;exitDy=0;dashed=1;dashPattern=8 8;" edge="1" parent="1" source="1xnr9raN_xx7woU1nJbw-98">
          <mxGeometry width="50" height="50" relative="1" as="geometry">
            <mxPoint x="140" y="190" as="sourcePoint" />
            <mxPoint x="30" y="80" as="targetPoint" />
          </mxGeometry>
        </mxCell>
        <mxCell id="mLHn8rPhlw_DNMw9R-SD-4" value="" style="endArrow=none;html=1;rounded=0;entryX=0.5;entryY=1;entryDx=0;entryDy=0;dashed=1;dashPattern=8 8;" edge="1" parent="1">
          <mxGeometry width="50" height="50" relative="1" as="geometry">
            <mxPoint x="30" y="1100" as="sourcePoint" />
            <mxPoint x="31" y="1030" as="targetPoint" />
          </mxGeometry>
        </mxCell>
        <mxCell id="9VuRrmX6LEQKQ4bahnSK-1" value="Servico de email" style="shape=umlActor;verticalLabelPosition=bottom;verticalAlign=top;html=1;outlineConnect=0;" vertex="1" parent="1">
          <mxGeometry x="1815" width="30" height="60" as="geometry" />
        </mxCell>
      </root>
    </mxGraphModel>
  </diagram>
</mxfile>
